<?xml version="1.0" encoding="UTF-8" standalone="no"?>
<!DOCTYPE svg PUBLIC "-//W3C//DTD SVG 1.1//EN"
 "http://www.w3.org/Graphics/SVG/1.1/DTD/svg11.dtd">
<!-- Generated by graphviz version 2.50.0 (20240430.0900)
 -->
<!-- Pages: 1 -->
<svg width="748pt" height="332pt"
 viewBox="0.00 0.00 748.34 332.00" xmlns="http://www.w3.org/2000/svg" xmlns:xlink="http://www.w3.org/1999/xlink">
<g id="graph0" class="graph" transform="scale(1 1) rotate(0) translate(4 328)">
<polygon fill="white" stroke="transparent" points="-4,4 -4,-328 744.34,-328 744.34,4 -4,4"/>
<!-- model_outlet -->
<g id="node1" class="node">
<title>model_outlet</title>
<ellipse fill="red" stroke="red" cx="97" cy="-18" rx="70.69" ry="18"/>
<text text-anchor="middle" x="97" y="-14.3" font-family="Times,serif" font-size="14.00" fill="white">model_outlet</text>
</g>
<!-- URG1_TAOS_return_flow -->
<g id="node2" class="node">
<title>URG1_TAOS_return_flow</title>
<polygon fill="hotpink" stroke="hotpink" points="194,-108 0,-108 0,-72 194,-72 194,-108"/>
<text text-anchor="middle" x="97" y="-86.3" font-family="Times,serif" font-size="14.00" fill="white">URG1_TAOS_return_flow</text>
</g>
<!-- URG1_TAOS_return_flow&#45;&gt;model_outlet -->
<g id="edge1" class="edge">
<title>URG1_TAOS_return_flow&#45;&gt;model_outlet</title>
<path fill="none" stroke="black" d="M97,-71.7C97,-63.98 97,-54.71 97,-46.11"/>
<polygon fill="black" stroke="black" points="100.5,-46.1 97,-36.1 93.5,-46.1 100.5,-46.1"/>
</g>
<!-- lobatos_gauge_inflow -->
<g id="node3" class="node">
<title>lobatos_gauge_inflow</title>
<ellipse fill="deepskyblue" stroke="deepskyblue" cx="230" cy="-306" rx="109.38" ry="18"/>
<text text-anchor="middle" x="230" y="-302.3" font-family="Times,serif" font-size="14.00" fill="white">lobatos_gauge_inflow</text>
</g>
<!-- cerro_gauge -->
<g id="node5" class="node">
<title>cerro_gauge</title>
<polygon fill="hotpink" stroke="hotpink" points="403,-252 299,-252 299,-216 403,-216 403,-252"/>
<text text-anchor="middle" x="351" y="-230.3" font-family="Times,serif" font-size="14.00" fill="white">cerro_gauge</text>
</g>
<!-- lobatos_gauge_inflow&#45;&gt;cerro_gauge -->
<g id="edge2" class="edge">
<title>lobatos_gauge_inflow&#45;&gt;cerro_gauge</title>
<path fill="none" stroke="black" d="M258.37,-288.59C274.55,-279.23 295.05,-267.37 312.64,-257.19"/>
<polygon fill="black" stroke="black" points="314.64,-260.08 321.55,-252.04 311.14,-254.02 314.64,-260.08"/>
</g>
<!-- rio_pueblo_taos_inflow -->
<g id="node4" class="node">
<title>rio_pueblo_taos_inflow</title>
<ellipse fill="deepskyblue" stroke="deepskyblue" cx="472" cy="-306" rx="115.08" ry="18"/>
<text text-anchor="middle" x="472" y="-302.3" font-family="Times,serif" font-size="14.00" fill="white">rio_pueblo_taos_inflow</text>
</g>
<!-- rio_pueblo_taos_inflow&#45;&gt;cerro_gauge -->
<g id="edge3" class="edge">
<title>rio_pueblo_taos_inflow&#45;&gt;cerro_gauge</title>
<path fill="none" stroke="black" d="M443.32,-288.41C427.26,-279.12 407,-267.4 389.56,-257.31"/>
<polygon fill="black" stroke="black" points="391.14,-254.18 380.73,-252.2 387.64,-260.24 391.14,-254.18"/>
</g>
<!-- URG1_TAOS_diversion_point -->
<g id="node6" class="node">
<title>URG1_TAOS_diversion_point</title>
<polygon fill="hotpink" stroke="hotpink" points="461.5,-180 240.5,-180 240.5,-144 461.5,-144 461.5,-180"/>
<text text-anchor="middle" x="351" y="-158.3" font-family="Times,serif" font-size="14.00" fill="white">URG1_TAOS_diversion_point</text>
</g>
<!-- cerro_gauge&#45;&gt;URG1_TAOS_diversion_point -->
<g id="edge4" class="edge">
<title>cerro_gauge&#45;&gt;URG1_TAOS_diversion_point</title>
<path fill="none" stroke="black" d="M351,-215.7C351,-207.98 351,-198.71 351,-190.11"/>
<polygon fill="black" stroke="black" points="354.5,-190.1 351,-180.1 347.5,-190.1 354.5,-190.1"/>
</g>
<!-- URG1_TAOS_diversion_point&#45;&gt;URG1_TAOS_return_flow -->
<g id="edge7" class="edge">
<title>URG1_TAOS_diversion_point&#45;&gt;URG1_TAOS_return_flow</title>
<path fill="none" stroke="black" d="M289.19,-143.97C252.93,-133.97 206.94,-121.3 169.04,-110.85"/>
<polygon fill="black" stroke="black" points="169.66,-107.39 159.09,-108.11 167.8,-114.14 169.66,-107.39"/>
</g>
<!-- URG1_TAOS_irrigation_loss -->
<g id="node7" class="node">
<title>URG1_TAOS_irrigation_loss</title>
<ellipse fill="red" stroke="red" cx="351" cy="-90" rx="139.18" ry="18"/>
<text text-anchor="middle" x="351" y="-86.3" font-family="Times,serif" font-size="14.00" fill="white">URG1_TAOS_irrigation_loss</text>
</g>
<!-- URG1_TAOS_diversion_point&#45;&gt;URG1_TAOS_irrigation_loss -->
<g id="edge6" class="edge">
<title>URG1_TAOS_diversion_point&#45;&gt;URG1_TAOS_irrigation_loss</title>
<path fill="none" stroke="black" d="M351,-143.7C351,-135.98 351,-126.71 351,-118.11"/>
<polygon fill="black" stroke="black" points="354.5,-118.1 351,-108.1 347.5,-118.1 354.5,-118.1"/>
</g>
<!-- URG1_TAOS_irrigation -->
<g id="node8" class="node">
<title>URG1_TAOS_irrigation</title>
<ellipse fill="red" stroke="red" cx="624" cy="-90" rx="116.18" ry="18"/>
<text text-anchor="middle" x="624" y="-86.3" font-family="Times,serif" font-size="14.00" fill="white">URG1_TAOS_irrigation</text>
</g>
<!-- URG1_TAOS_diversion_point&#45;&gt;URG1_TAOS_irrigation -->
<g id="edge5" class="edge">
<title>URG1_TAOS_diversion_point&#45;&gt;URG1_TAOS_irrigation</title>
<path fill="none" stroke="black" d="M417.43,-143.97C459.75,-133.12 514.39,-119.1 556.85,-108.22"/>
<polygon fill="black" stroke="black" points="557.72,-111.61 566.54,-105.73 555.98,-104.83 557.72,-111.61"/>
</g>
</g>
</svg>
